<svg width="155" height="29" viewBox="0 0 155 29" fill="none" xmlns="http://www.w3.org/2000/svg">
<path d="M0.275568 28V1.81818H5.72159V11.6619H5.88778C6.12642 11.1335 6.47159 10.5966 6.9233 10.0511C7.38352 9.49716 7.98011 9.03693 8.71307 8.67045C9.45455 8.29545 10.375 8.10795 11.4744 8.10795C12.9063 8.10795 14.2273 8.48295 15.4375 9.23295C16.6477 9.97443 17.6151 11.0952 18.3395 12.5952C19.0639 14.0866 19.4261 15.9574 19.4261 18.2074C19.4261 20.3977 19.0724 22.2472 18.3651 23.7557C17.6662 25.2557 16.7116 26.3935 15.5014 27.169C14.2997 27.9361 12.9531 28.3196 11.4616 28.3196C10.4048 28.3196 9.50568 28.1449 8.7642 27.7955C8.03125 27.446 7.4304 27.0071 6.96165 26.4787C6.4929 25.9418 6.13494 25.4006 5.88778 24.8551H5.64489V28H0.275568ZM5.60653 18.1818C5.60653 19.3494 5.76847 20.3679 6.09233 21.2372C6.41619 22.1065 6.88494 22.7841 7.49858 23.2699C8.11222 23.7472 8.85796 23.9858 9.7358 23.9858C10.6222 23.9858 11.3722 23.7429 11.9858 23.2571C12.5994 22.7628 13.0639 22.081 13.3793 21.2116C13.7031 20.3338 13.8651 19.3239 13.8651 18.1818C13.8651 17.0483 13.7074 16.0511 13.392 15.1903C13.0767 14.3295 12.6122 13.6562 11.9986 13.1705C11.3849 12.6847 10.6307 12.4418 9.7358 12.4418C8.84943 12.4418 8.09943 12.6761 7.4858 13.1449C6.88068 13.6136 6.41619 14.2784 6.09233 15.1392C5.76847 16 5.60653 17.0142 5.60653 18.1818ZM28.6594 28.3707C27.4066 28.3707 26.2901 28.1534 25.31 27.7188C24.3299 27.2756 23.5543 26.6236 22.9833 25.7628C22.4208 24.8935 22.1396 23.8111 22.1396 22.5156C22.1396 21.4247 22.3398 20.5085 22.7404 19.767C23.141 19.0256 23.6864 18.429 24.3768 17.9773C25.0671 17.5256 25.8512 17.1847 26.729 16.9545C27.6154 16.7244 28.5444 16.5625 29.516 16.4688C30.658 16.3494 31.5785 16.2386 32.2773 16.1364C32.9762 16.0256 33.4833 15.8636 33.7987 15.6506C34.114 15.4375 34.2717 15.1222 34.2717 14.7045V14.6278C34.2717 13.8182 34.016 13.1918 33.5046 12.7486C33.0018 12.3054 32.2859 12.0838 31.3569 12.0838C30.3768 12.0838 29.5969 12.3011 29.0174 12.7358C28.4379 13.1619 28.0543 13.6989 27.8668 14.3466L22.8299 13.9375C23.0856 12.7443 23.5884 11.7131 24.3384 10.8438C25.0884 9.96591 26.0558 9.29261 27.2404 8.82386C28.4336 8.34659 29.8143 8.10795 31.3825 8.10795C32.4734 8.10795 33.5174 8.2358 34.5146 8.49148C35.5202 8.74716 36.4109 9.14347 37.1864 9.6804C37.9705 10.2173 38.5884 10.9077 39.0401 11.7514C39.4918 12.5866 39.7177 13.5881 39.7177 14.7557V28H34.5529V25.277H34.3995C34.0842 25.8906 33.6623 26.4318 33.1339 26.9006C32.6055 27.3608 31.9705 27.723 31.229 27.9872C30.4876 28.2429 29.631 28.3707 28.6594 28.3707ZM30.2191 24.6122C31.0202 24.6122 31.7276 24.4545 32.3413 24.1392C32.9549 23.8153 33.4364 23.3807 33.7859 22.8352C34.1353 22.2898 34.31 21.6719 34.31 20.9815V18.8977C34.1396 19.0085 33.9052 19.1108 33.6069 19.2045C33.3171 19.2898 32.989 19.3707 32.6225 19.4474C32.256 19.5156 31.8896 19.5795 31.5231 19.6392C31.1566 19.6903 30.8242 19.7372 30.5259 19.7798C29.8867 19.8736 29.3285 20.0227 28.8512 20.2273C28.3739 20.4318 28.0032 20.7088 27.739 21.0582C27.4748 21.3991 27.3427 21.8253 27.3427 22.3366C27.3427 23.0781 27.6112 23.6449 28.1481 24.0369C28.6935 24.4205 29.3839 24.6122 30.2191 24.6122ZM43.9428 28V8.36364H49.2227V11.7898H49.4272C49.7852 10.571 50.386 9.65057 51.2298 9.02841C52.0735 8.39773 53.0451 8.08239 54.1445 8.08239C54.4173 8.08239 54.7113 8.09943 55.0266 8.13352C55.342 8.16761 55.619 8.21449 55.8576 8.27415V13.1065C55.6019 13.0298 55.2482 12.9616 54.7965 12.902C54.3448 12.8423 53.9315 12.8125 53.5565 12.8125C52.7553 12.8125 52.0394 12.9872 51.4087 13.3366C50.7866 13.6776 50.2923 14.1548 49.9258 14.7685C49.5678 15.3821 49.3888 16.0895 49.3888 16.8906V28H43.9428ZM58.7756 28V1.81818H64.2216V11.6619H64.3878C64.6264 11.1335 64.9716 10.5966 65.4233 10.0511C65.8835 9.49716 66.4801 9.03693 67.2131 8.67045C67.9545 8.29545 68.875 8.10795 69.9744 8.10795C71.4063 8.10795 72.7273 8.48295 73.9375 9.23295C75.1477 9.97443 76.1151 11.0952 76.8395 12.5952C77.5639 14.0866 77.9261 15.9574 77.9261 18.2074C77.9261 20.3977 77.5724 22.2472 76.8651 23.7557C76.1662 25.2557 75.2116 26.3935 74.0014 27.169C72.7997 27.9361 71.4531 28.3196 69.9616 28.3196C68.9048 28.3196 68.0057 28.1449 67.2642 27.7955C66.5312 27.446 65.9304 27.0071 65.4616 26.4787C64.9929 25.9418 64.6349 25.4006 64.3878 24.8551H64.1449V28H58.7756ZM64.1065 18.1818C64.1065 19.3494 64.2685 20.3679 64.5923 21.2372C64.9162 22.1065 65.3849 22.7841 65.9986 23.2699C66.6122 23.7472 67.358 23.9858 68.2358 23.9858C69.1222 23.9858 69.8722 23.7429 70.4858 23.2571C71.0994 22.7628 71.5639 22.081 71.8793 21.2116C72.2031 20.3338 72.3651 19.3239 72.3651 18.1818C72.3651 17.0483 72.2074 16.0511 71.892 15.1903C71.5767 14.3295 71.1122 13.6562 70.4986 13.1705C69.8849 12.6847 69.1307 12.4418 68.2358 12.4418C67.3494 12.4418 66.5994 12.6761 65.9858 13.1449C65.3807 13.6136 64.9162 14.2784 64.5923 15.1392C64.2685 16 64.1065 17.0142 64.1065 18.1818ZM90.5089 28.3835C88.489 28.3835 86.7504 27.9744 85.293 27.1562C83.8441 26.3295 82.7276 25.1619 81.9435 23.6534C81.1594 22.1364 80.7674 20.3423 80.7674 18.2713C80.7674 16.2514 81.1594 14.4787 81.9435 12.9531C82.7276 11.4276 83.8313 10.2386 85.2546 9.38636C86.6864 8.53409 88.3654 8.10795 90.2915 8.10795C91.587 8.10795 92.793 8.31676 93.9094 8.73438C95.0344 9.14347 96.0146 9.76136 96.8498 10.5881C97.6935 11.4148 98.3498 12.4545 98.8185 13.7074C99.2873 14.9517 99.5217 16.4091 99.5217 18.0795V19.5753H82.9407V16.2003H94.3952C94.3952 15.4162 94.2248 14.7216 93.8839 14.1165C93.543 13.5114 93.07 13.0384 92.4648 12.6974C91.8683 12.348 91.1737 12.1733 90.381 12.1733C89.5543 12.1733 88.8214 12.3651 88.1822 12.7486C87.5515 13.1236 87.0572 13.6307 86.6992 14.2699C86.3413 14.9006 86.158 15.6037 86.1495 16.3793V19.5881C86.1495 20.5597 86.3285 21.3991 86.6864 22.1065C87.0529 22.8139 87.5685 23.3594 88.2333 23.7429C88.8981 24.1264 89.6864 24.3182 90.5984 24.3182C91.2035 24.3182 91.7575 24.233 92.2603 24.0625C92.7631 23.892 93.1935 23.6364 93.5515 23.2955C93.9094 22.9545 94.1822 22.5369 94.3697 22.0426L99.4066 22.375C99.1509 23.5852 98.6268 24.642 97.8342 25.5455C97.0501 26.4403 96.0359 27.1392 94.7915 27.642C93.5558 28.1364 92.1282 28.3835 90.5089 28.3835ZM103.076 28V8.36364H108.355V11.7898H108.56C108.918 10.571 109.519 9.65057 110.363 9.02841C111.206 8.39773 112.178 8.08239 113.277 8.08239C113.55 8.08239 113.844 8.09943 114.159 8.13352C114.475 8.16761 114.752 8.21449 114.99 8.27415V13.1065C114.735 13.0298 114.381 12.9616 113.929 12.902C113.478 12.8423 113.064 12.8125 112.689 12.8125C111.888 12.8125 111.172 12.9872 110.542 13.3366C109.919 13.6776 109.425 14.1548 109.059 14.7685C108.701 15.3821 108.522 16.0895 108.522 16.8906V28H103.076ZM118.739 28.3324C117.896 28.3324 117.171 28.0341 116.566 27.4375C115.969 26.8324 115.671 26.108 115.671 25.2642C115.671 24.429 115.969 23.7131 116.566 23.1165C117.171 22.5199 117.896 22.2216 118.739 22.2216C119.558 22.2216 120.273 22.5199 120.887 23.1165C121.501 23.7131 121.808 24.429 121.808 25.2642C121.808 25.8267 121.663 26.3423 121.373 26.8111C121.092 27.2713 120.721 27.642 120.261 27.9233C119.8 28.196 119.293 28.3324 118.739 28.3324ZM126.279 28V8.36364H131.725V28H126.279ZM129.015 5.83239C128.205 5.83239 127.51 5.56392 126.931 5.02699C126.36 4.48153 126.074 3.82954 126.074 3.07102C126.074 2.32102 126.36 1.67756 126.931 1.14062C127.51 0.59517 128.205 0.322442 129.015 0.322442C129.824 0.322442 130.515 0.59517 131.086 1.14062C131.665 1.67756 131.955 2.32102 131.955 3.07102C131.955 3.82954 131.665 4.48153 131.086 5.02699C130.515 5.56392 129.824 5.83239 129.015 5.83239ZM144.96 28.3835C142.974 28.3835 141.256 27.9616 139.808 27.1179C138.367 26.2656 137.255 25.081 136.471 23.5639C135.687 22.0384 135.295 20.2699 135.295 18.2585C135.295 16.2301 135.687 14.4574 136.471 12.9403C137.255 11.4148 138.367 10.2301 139.808 9.38636C141.256 8.53409 142.974 8.10795 144.96 8.10795C146.945 8.10795 148.658 8.53409 150.099 9.38636C151.548 10.2301 152.664 11.4148 153.448 12.9403C154.232 14.4574 154.624 16.2301 154.624 18.2585C154.624 20.2699 154.232 22.0384 153.448 23.5639C152.664 25.081 151.548 26.2656 150.099 27.1179C148.658 27.9616 146.945 28.3835 144.96 28.3835ZM144.985 24.1648C145.888 24.1648 146.643 23.9091 147.248 23.3977C147.853 22.8778 148.309 22.1705 148.616 21.2756C148.931 20.3807 149.089 19.3622 149.089 18.2202C149.089 17.0781 148.931 16.0597 148.616 15.1648C148.309 14.2699 147.853 13.5625 147.248 13.0426C146.643 12.5227 145.888 12.2628 144.985 12.2628C144.073 12.2628 143.306 12.5227 142.684 13.0426C142.07 13.5625 141.606 14.2699 141.29 15.1648C140.984 16.0597 140.83 17.0781 140.83 18.2202C140.83 19.3622 140.984 20.3807 141.29 21.2756C141.606 22.1705 142.07 22.8778 142.684 23.3977C143.306 23.9091 144.073 24.1648 144.985 24.1648Z" fill="#394687"/>
</svg>
